<svg width="154" height="182" viewBox="0 0 154 182" fill="none" xmlns="http://www.w3.org/2000/svg">
<path fill-rule="evenodd" clip-rule="evenodd" d="M5.51005 103.66C5.51005 105.177 4.2803 106.401 2.75503 106.401C1.23929 106.391 0.00953714 105.168 0.00953714 103.66C0.00953714 102.143 1.23929 100.919 2.76456 100.919C4.2803 100.919 5.51005 102.143 5.51005 103.66Z" fill="#CCCCCC" fill-opacity="0.75"/>
<path fill-rule="evenodd" clip-rule="evenodd" d="M26.7494 103.66C26.7494 105.177 25.5197 106.401 23.9944 106.401C23.4987 106.401 23.0411 106.268 22.6407 106.05C21.8018 105.576 21.2489 104.684 21.2489 103.67C21.2489 102.162 22.4787 100.929 24.004 100.929C25.5197 100.919 26.7494 102.143 26.7494 103.66Z" fill="#CCCCCC" fill-opacity="0.75"/>
<path fill-rule="evenodd" clip-rule="evenodd" d="M47.9793 103.66C47.9793 105.177 46.7496 106.401 45.2243 106.401C43.699 106.401 42.4693 105.177 42.4693 103.66C42.4693 102.152 43.699 100.919 45.2243 100.919C46.7496 100.919 47.9793 102.143 47.9793 103.66Z" fill="#CCCCCC" fill-opacity="0.75"/>
<path fill-rule="evenodd" clip-rule="evenodd" d="M69.2187 103.66C69.2187 105.177 67.989 106.401 66.4637 106.401C64.948 106.401 63.7087 105.177 63.7087 103.66C63.7087 102.152 64.9384 100.919 66.4637 100.919C67.989 100.919 69.2187 102.143 69.2187 103.66Z" fill="#CCCCCC" fill-opacity="0.75"/>
<path fill-rule="evenodd" clip-rule="evenodd" d="M5.51004 128.496C5.51004 130.014 4.28029 131.237 2.75502 131.237C1.22975 131.237 0 130.014 0 128.496C0 126.979 1.22975 125.756 2.75502 125.756C4.28029 125.756 5.51004 126.989 5.51004 128.496Z" fill="#CCCCCC" fill-opacity="0.75"/>
<path fill-rule="evenodd" clip-rule="evenodd" d="M26.7495 128.496C26.7495 130.014 25.5197 131.237 23.9944 131.237C22.4787 131.237 21.2394 130.014 21.2394 128.496C21.2394 126.979 22.4692 125.756 23.9944 125.756C25.5197 125.756 26.7495 126.989 26.7495 128.496Z" fill="#CCCCCC" fill-opacity="0.75"/>
<path fill-rule="evenodd" clip-rule="evenodd" d="M47.9793 128.496C47.9793 130.014 46.7496 131.237 45.2243 131.237C43.699 131.237 42.4693 130.014 42.4693 128.496C42.4693 126.979 43.699 125.756 45.2243 125.756C46.7496 125.756 47.9793 126.989 47.9793 128.496Z" fill="#CCCCCC" fill-opacity="0.75"/>
<path fill-rule="evenodd" clip-rule="evenodd" d="M69.2187 128.496C69.2187 130.014 67.989 131.237 66.4637 131.237C64.948 131.237 63.7087 130.014 63.7087 128.496C63.7087 126.979 64.9384 125.756 66.4637 125.756C67.989 125.756 69.2187 126.989 69.2187 128.496Z" fill="#CCCCCC" fill-opacity="0.75"/>
<path fill-rule="evenodd" clip-rule="evenodd" d="M5.51004 153.636C5.51004 155.153 4.28029 156.377 2.75502 156.377C1.22975 156.377 0 155.153 0 153.636C0.00953295 152.128 1.23928 150.895 2.76455 150.895C4.28029 150.895 5.51004 152.128 5.51004 153.636Z" fill="#CCCCCC" fill-opacity="0.75"/>
<path fill-rule="evenodd" clip-rule="evenodd" d="M26.7495 153.636C26.7495 155.153 25.5197 156.377 23.9944 156.377C22.4787 156.377 21.2394 155.153 21.2394 153.636C21.2394 152.128 22.4692 150.895 23.9944 150.895C25.5197 150.895 26.7495 152.128 26.7495 153.636Z" fill="#CCCCCC" fill-opacity="0.75"/>
<path fill-rule="evenodd" clip-rule="evenodd" d="M47.9793 153.636C47.9793 155.153 46.7496 156.377 45.2243 156.377C43.699 156.377 42.4693 155.153 42.4693 153.636C42.4693 152.128 43.699 150.895 45.2243 150.895C46.7496 150.895 47.9793 152.128 47.9793 153.636Z" fill="#CCCCCC" fill-opacity="0.75"/>
<path fill-rule="evenodd" clip-rule="evenodd" d="M69.2187 153.636C69.2187 155.153 67.989 156.377 66.4637 156.377C64.948 156.377 63.7087 155.153 63.7087 153.636C63.7087 152.128 64.9384 150.895 66.4637 150.895C67.989 150.895 69.2187 152.128 69.2187 153.636Z" fill="#CCCCCC" fill-opacity="0.75"/>
<path fill-rule="evenodd" clip-rule="evenodd" d="M5.51005 179.259C5.51005 180.777 4.2803 182 2.75503 182C1.23929 182 0.00953714 180.767 0.00953714 179.259C0.00953714 177.742 1.23929 176.519 2.76456 176.519C4.2803 176.519 5.51005 177.742 5.51005 179.259Z" fill="#CCCCCC" fill-opacity="0.75"/>
<path fill-rule="evenodd" clip-rule="evenodd" d="M26.7495 179.259C26.7495 180.777 25.5197 182 23.9944 182C22.4787 182 21.2394 180.777 21.2394 179.259C21.2394 177.742 22.4692 176.519 23.9944 176.519C25.5197 176.519 26.7495 177.742 26.7495 179.259Z" fill="#CCCCCC" fill-opacity="0.75"/>
<path fill-rule="evenodd" clip-rule="evenodd" d="M47.9793 179.259C47.9793 180.777 46.7496 182 45.2243 182C43.699 182 42.4693 180.777 42.4693 179.259C42.4693 177.742 43.699 176.519 45.2243 176.519C46.7496 176.519 47.9793 177.742 47.9793 179.259Z" fill="#CCCCCC" fill-opacity="0.75"/>
<path fill-rule="evenodd" clip-rule="evenodd" d="M69.2187 179.259C69.2187 180.777 67.989 182 66.4637 182C64.948 182 63.7087 180.777 63.7087 179.259C63.7087 177.742 64.9384 176.519 66.4637 176.519C67.989 176.519 69.2187 177.742 69.2187 179.259Z" fill="#CCCCCC" fill-opacity="0.75"/>
<path fill-rule="evenodd" clip-rule="evenodd" d="M5.51005 2.74062C5.51005 4.25792 4.2803 5.48124 2.75503 5.48124C1.23929 5.47175 0.00953714 4.24843 0.00953714 2.74062C0.00953714 1.22332 1.23929 0 2.76456 0C4.2803 0 5.51005 1.22332 5.51005 2.74062Z" fill="#CCCCCC" fill-opacity="0.75"/>
<path fill-rule="evenodd" clip-rule="evenodd" d="M26.7494 2.74062C26.7494 4.25792 25.5197 5.48124 23.9944 5.48124C23.4987 5.48124 23.0411 5.34848 22.6407 5.13037C21.8018 4.65621 21.2489 3.7648 21.2489 2.75011C21.2489 1.24229 22.4787 0.0094874 24.004 0.0094874C25.5197 4.29696e-06 26.7494 1.22333 26.7494 2.74062Z" fill="#CCCCCC" fill-opacity="0.75"/>
<path fill-rule="evenodd" clip-rule="evenodd" d="M47.9793 2.74062C47.9793 4.25792 46.7496 5.48124 45.2243 5.48124C43.699 5.48124 42.4693 4.25792 42.4693 2.74062C42.4693 1.2328 43.699 0 45.2243 0C46.7496 0 47.9793 1.22332 47.9793 2.74062Z" fill="#CCCCCC" fill-opacity="0.75"/>
<path fill-rule="evenodd" clip-rule="evenodd" d="M69.2187 2.74062C69.2187 4.25792 67.989 5.48124 66.4637 5.48124C64.948 5.48124 63.7087 4.25792 63.7087 2.74062C63.7087 1.2328 64.9384 0 66.4637 0C67.989 0 69.2187 1.22332 69.2187 2.74062Z" fill="#CCCCCC" fill-opacity="0.75"/>
<path fill-rule="evenodd" clip-rule="evenodd" d="M5.51004 27.5769C5.51004 29.0942 4.28029 30.3175 2.75502 30.3175C1.22975 30.3175 0 29.0942 0 27.5769C0 26.0596 1.22975 24.8363 2.75502 24.8363C4.28029 24.8363 5.51004 26.0691 5.51004 27.5769Z" fill="#CCCCCC" fill-opacity="0.75"/>
<path fill-rule="evenodd" clip-rule="evenodd" d="M26.7495 27.5769C26.7495 29.0942 25.5197 30.3175 23.9944 30.3175C22.4787 30.3175 21.2394 29.0942 21.2394 27.5769C21.2394 26.0596 22.4692 24.8363 23.9944 24.8363C25.5197 24.8363 26.7495 26.0691 26.7495 27.5769Z" fill="#CCCCCC" fill-opacity="0.75"/>
<path fill-rule="evenodd" clip-rule="evenodd" d="M47.9793 27.5769C47.9793 29.0942 46.7496 30.3175 45.2243 30.3175C43.699 30.3175 42.4693 29.0942 42.4693 27.5769C42.4693 26.0596 43.699 24.8363 45.2243 24.8363C46.7496 24.8363 47.9793 26.0691 47.9793 27.5769Z" fill="#CCCCCC" fill-opacity="0.75"/>
<path fill-rule="evenodd" clip-rule="evenodd" d="M69.2187 27.5769C69.2187 29.0942 67.989 30.3175 66.4637 30.3175C64.948 30.3175 63.7087 29.0942 63.7087 27.5769C63.7087 26.0596 64.9384 24.8363 66.4637 24.8363C67.989 24.8363 69.2187 26.0691 69.2187 27.5769Z" fill="#CCCCCC" fill-opacity="0.75"/>
<path fill-rule="evenodd" clip-rule="evenodd" d="M5.51004 52.7166C5.51004 54.2339 4.28029 55.4572 2.75502 55.4572C1.22975 55.4572 0 54.2339 0 52.7166C0.00953295 51.2088 1.23928 49.976 2.76455 49.976C4.28029 49.976 5.51004 51.2088 5.51004 52.7166Z" fill="#CCCCCC" fill-opacity="0.75"/>
<path fill-rule="evenodd" clip-rule="evenodd" d="M26.7495 52.7166C26.7495 54.2339 25.5197 55.4572 23.9944 55.4572C22.4787 55.4572 21.2394 54.2339 21.2394 52.7166C21.2394 51.2088 22.4692 49.976 23.9944 49.976C25.5197 49.976 26.7495 51.2088 26.7495 52.7166Z" fill="#CCCCCC" fill-opacity="0.75"/>
<path fill-rule="evenodd" clip-rule="evenodd" d="M47.9793 52.7166C47.9793 54.2339 46.7496 55.4572 45.2243 55.4572C43.699 55.4572 42.4693 54.2339 42.4693 52.7166C42.4693 51.2088 43.699 49.976 45.2243 49.976C46.7496 49.976 47.9793 51.2088 47.9793 52.7166Z" fill="#CCCCCC" fill-opacity="0.75"/>
<path fill-rule="evenodd" clip-rule="evenodd" d="M69.2187 52.7166C69.2187 54.2339 67.989 55.4572 66.4637 55.4572C64.948 55.4572 63.7087 54.2339 63.7087 52.7166C63.7087 51.2088 64.9384 49.976 66.4637 49.976C67.989 49.976 69.2187 51.2088 69.2187 52.7166Z" fill="#CCCCCC" fill-opacity="0.75"/>
<path fill-rule="evenodd" clip-rule="evenodd" d="M5.51005 78.34C5.51005 79.8572 4.2803 81.0806 2.75503 81.0806C1.23929 81.0806 0.00953714 79.8478 0.00953714 78.34C0.00953714 76.8226 1.23929 75.5993 2.76456 75.5993C4.2803 75.5993 5.51005 76.8226 5.51005 78.34Z" fill="#CCCCCC" fill-opacity="0.75"/>
<path fill-rule="evenodd" clip-rule="evenodd" d="M26.7495 78.34C26.7495 79.8572 25.5197 81.0806 23.9944 81.0806C22.4787 81.0806 21.2394 79.8572 21.2394 78.34C21.2394 76.8226 22.4692 75.5993 23.9944 75.5993C25.5197 75.5993 26.7495 76.8226 26.7495 78.34Z" fill="#CCCCCC" fill-opacity="0.75"/>
<path fill-rule="evenodd" clip-rule="evenodd" d="M47.9793 78.34C47.9793 79.8572 46.7496 81.0806 45.2243 81.0806C43.699 81.0806 42.4693 79.8572 42.4693 78.34C42.4693 76.8226 43.699 75.5993 45.2243 75.5993C46.7496 75.5993 47.9793 76.8226 47.9793 78.34Z" fill="#CCCCCC" fill-opacity="0.75"/>
<path fill-rule="evenodd" clip-rule="evenodd" d="M69.2187 78.34C69.2187 79.8572 67.989 81.0806 66.4637 81.0806C64.948 81.0806 63.7087 79.8572 63.7087 78.34C63.7087 76.8226 64.9384 75.5993 66.4637 75.5993C67.989 75.5993 69.2187 76.8226 69.2187 78.34Z" fill="#CCCCCC" fill-opacity="0.75"/>
<path fill-rule="evenodd" clip-rule="evenodd" d="M90.2913 103.66C90.2913 105.177 89.0616 106.401 87.5363 106.401C86.0206 106.391 84.7908 105.168 84.7908 103.66C84.7908 102.143 86.0205 100.919 87.5458 100.919C89.0616 100.919 90.2913 102.143 90.2913 103.66Z" fill="#CCCCCC" fill-opacity="0.75"/>
<path fill-rule="evenodd" clip-rule="evenodd" d="M111.531 103.66C111.531 105.177 110.301 106.401 108.776 106.401C108.28 106.401 107.822 106.268 107.422 106.05C106.583 105.576 106.03 104.684 106.03 103.67C106.03 102.162 107.26 100.929 108.785 100.929C110.301 100.919 111.531 102.143 111.531 103.66Z" fill="#CCCCCC" fill-opacity="0.75"/>
<path fill-rule="evenodd" clip-rule="evenodd" d="M132.761 103.66C132.761 105.177 131.531 106.401 130.006 106.401C128.48 106.401 127.251 105.177 127.251 103.66C127.251 102.152 128.48 100.919 130.006 100.919C131.531 100.919 132.761 102.143 132.761 103.66Z" fill="#CCCCCC" fill-opacity="0.75"/>
<path fill-rule="evenodd" clip-rule="evenodd" d="M154 103.66C154 105.177 152.77 106.401 151.245 106.401C149.729 106.401 148.49 105.177 148.49 103.66C148.49 102.152 149.72 100.919 151.245 100.919C152.77 100.919 154 102.143 154 103.66Z" fill="#CCCCCC" fill-opacity="0.75"/>
<path fill-rule="evenodd" clip-rule="evenodd" d="M90.2913 128.496C90.2913 130.014 89.0616 131.237 87.5363 131.237C86.011 131.237 84.7813 130.014 84.7813 128.496C84.7813 126.979 86.011 125.756 87.5363 125.756C89.0616 125.756 90.2913 126.989 90.2913 128.496Z" fill="#CCCCCC" fill-opacity="0.75"/>
<path fill-rule="evenodd" clip-rule="evenodd" d="M111.531 128.496C111.531 130.014 110.301 131.237 108.776 131.237C107.26 131.237 106.021 130.014 106.021 128.496C106.021 126.979 107.25 125.756 108.776 125.756C110.301 125.756 111.531 126.989 111.531 128.496Z" fill="#CCCCCC" fill-opacity="0.75"/>
<path fill-rule="evenodd" clip-rule="evenodd" d="M132.761 128.496C132.761 130.014 131.531 131.237 130.006 131.237C128.48 131.237 127.251 130.014 127.251 128.496C127.251 126.979 128.48 125.756 130.006 125.756C131.531 125.756 132.761 126.989 132.761 128.496Z" fill="#CCCCCC" fill-opacity="0.75"/>
<path fill-rule="evenodd" clip-rule="evenodd" d="M154 128.496C154 130.014 152.77 131.237 151.245 131.237C149.729 131.237 148.49 130.014 148.49 128.496C148.49 126.979 149.72 125.756 151.245 125.756C152.77 125.756 154 126.989 154 128.496Z" fill="#CCCCCC" fill-opacity="0.75"/>
<path fill-rule="evenodd" clip-rule="evenodd" d="M90.2913 153.636C90.2913 155.153 89.0616 156.377 87.5363 156.377C86.011 156.377 84.7813 155.153 84.7813 153.636C84.7908 152.128 86.0205 150.895 87.5458 150.895C89.0616 150.895 90.2913 152.128 90.2913 153.636Z" fill="#CCCCCC" fill-opacity="0.75"/>
<path fill-rule="evenodd" clip-rule="evenodd" d="M111.531 153.636C111.531 155.153 110.301 156.377 108.776 156.377C107.26 156.377 106.021 155.153 106.021 153.636C106.021 152.128 107.25 150.895 108.776 150.895C110.301 150.895 111.531 152.128 111.531 153.636Z" fill="#CCCCCC" fill-opacity="0.75"/>
<path fill-rule="evenodd" clip-rule="evenodd" d="M132.761 153.636C132.761 155.153 131.531 156.377 130.006 156.377C128.48 156.377 127.251 155.153 127.251 153.636C127.251 152.128 128.48 150.895 130.006 150.895C131.531 150.895 132.761 152.128 132.761 153.636Z" fill="#CCCCCC" fill-opacity="0.75"/>
<path fill-rule="evenodd" clip-rule="evenodd" d="M154 153.636C154 155.153 152.77 156.377 151.245 156.377C149.729 156.377 148.49 155.153 148.49 153.636C148.49 152.128 149.72 150.895 151.245 150.895C152.77 150.895 154 152.128 154 153.636Z" fill="#CCCCCC" fill-opacity="0.75"/>
<path fill-rule="evenodd" clip-rule="evenodd" d="M90.2913 179.259C90.2913 180.777 89.0616 182 87.5363 182C86.0206 182 84.7908 180.767 84.7908 179.259C84.7908 177.742 86.0205 176.519 87.5458 176.519C89.0616 176.519 90.2913 177.742 90.2913 179.259Z" fill="#CCCCCC" fill-opacity="0.75"/>
<path fill-rule="evenodd" clip-rule="evenodd" d="M111.531 179.259C111.531 180.777 110.301 182 108.776 182C107.26 182 106.021 180.777 106.021 179.259C106.021 177.742 107.25 176.519 108.776 176.519C110.301 176.519 111.531 177.742 111.531 179.259Z" fill="#CCCCCC" fill-opacity="0.75"/>
<path fill-rule="evenodd" clip-rule="evenodd" d="M132.761 179.259C132.761 180.777 131.531 182 130.006 182C128.48 182 127.251 180.777 127.251 179.259C127.251 177.742 128.48 176.519 130.006 176.519C131.531 176.519 132.761 177.742 132.761 179.259Z" fill="#CCCCCC" fill-opacity="0.75"/>
<path fill-rule="evenodd" clip-rule="evenodd" d="M154 179.259C154 180.777 152.77 182 151.245 182C149.729 182 148.49 180.777 148.49 179.259C148.49 177.742 149.72 176.519 151.245 176.519C152.77 176.519 154 177.742 154 179.259Z" fill="#CCCCCC" fill-opacity="0.75"/>
<path fill-rule="evenodd" clip-rule="evenodd" d="M90.2913 2.74062C90.2913 4.25792 89.0616 5.48124 87.5363 5.48124C86.0206 5.47175 84.7908 4.24843 84.7908 2.74062C84.7908 1.22332 86.0205 0 87.5458 0C89.0616 0 90.2913 1.22332 90.2913 2.74062Z" fill="#CCCCCC" fill-opacity="0.75"/>
<path fill-rule="evenodd" clip-rule="evenodd" d="M111.531 2.74062C111.531 4.25792 110.301 5.48124 108.776 5.48124C108.28 5.48124 107.822 5.34848 107.422 5.13037C106.583 4.65621 106.03 3.7648 106.03 2.75011C106.03 1.24229 107.26 0.0094874 108.785 0.0094874C110.301 4.29696e-06 111.531 1.22333 111.531 2.74062Z" fill="#CCCCCC" fill-opacity="0.75"/>
<path fill-rule="evenodd" clip-rule="evenodd" d="M132.761 2.74062C132.761 4.25792 131.531 5.48124 130.006 5.48124C128.48 5.48124 127.251 4.25792 127.251 2.74062C127.251 1.2328 128.48 0 130.006 0C131.531 0 132.761 1.22332 132.761 2.74062Z" fill="#CCCCCC" fill-opacity="0.75"/>
<path fill-rule="evenodd" clip-rule="evenodd" d="M154 2.74062C154 4.25792 152.77 5.48124 151.245 5.48124C149.729 5.48124 148.49 4.25792 148.49 2.74062C148.49 1.2328 149.72 0 151.245 0C152.77 0 154 1.22332 154 2.74062Z" fill="#CCCCCC" fill-opacity="0.75"/>
<path fill-rule="evenodd" clip-rule="evenodd" d="M90.2913 27.5769C90.2913 29.0942 89.0616 30.3175 87.5363 30.3175C86.011 30.3175 84.7813 29.0942 84.7813 27.5769C84.7813 26.0596 86.011 24.8363 87.5363 24.8363C89.0616 24.8363 90.2913 26.0691 90.2913 27.5769Z" fill="#CCCCCC" fill-opacity="0.75"/>
<path fill-rule="evenodd" clip-rule="evenodd" d="M111.531 27.5769C111.531 29.0942 110.301 30.3175 108.776 30.3175C107.26 30.3175 106.021 29.0942 106.021 27.5769C106.021 26.0596 107.25 24.8363 108.776 24.8363C110.301 24.8363 111.531 26.0691 111.531 27.5769Z" fill="#CCCCCC" fill-opacity="0.75"/>
<path fill-rule="evenodd" clip-rule="evenodd" d="M132.761 27.5769C132.761 29.0942 131.531 30.3175 130.006 30.3175C128.48 30.3175 127.251 29.0942 127.251 27.5769C127.251 26.0596 128.48 24.8363 130.006 24.8363C131.531 24.8363 132.761 26.0691 132.761 27.5769Z" fill="#CCCCCC" fill-opacity="0.75"/>
<path fill-rule="evenodd" clip-rule="evenodd" d="M154 27.5769C154 29.0942 152.77 30.3175 151.245 30.3175C149.729 30.3175 148.49 29.0942 148.49 27.5769C148.49 26.0596 149.72 24.8363 151.245 24.8363C152.77 24.8363 154 26.0691 154 27.5769Z" fill="#CCCCCC" fill-opacity="0.75"/>
<path fill-rule="evenodd" clip-rule="evenodd" d="M90.2913 52.7166C90.2913 54.2339 89.0616 55.4572 87.5363 55.4572C86.011 55.4572 84.7813 54.2339 84.7813 52.7166C84.7908 51.2088 86.0205 49.976 87.5458 49.976C89.0616 49.976 90.2913 51.2088 90.2913 52.7166Z" fill="#CCCCCC" fill-opacity="0.75"/>
<path fill-rule="evenodd" clip-rule="evenodd" d="M111.531 52.7166C111.531 54.2339 110.301 55.4572 108.776 55.4572C107.26 55.4572 106.021 54.2339 106.021 52.7166C106.021 51.2088 107.25 49.976 108.776 49.976C110.301 49.976 111.531 51.2088 111.531 52.7166Z" fill="#CCCCCC" fill-opacity="0.75"/>
<path fill-rule="evenodd" clip-rule="evenodd" d="M132.761 52.7166C132.761 54.2339 131.531 55.4572 130.006 55.4572C128.48 55.4572 127.251 54.2339 127.251 52.7166C127.251 51.2088 128.48 49.976 130.006 49.976C131.531 49.976 132.761 51.2088 132.761 52.7166Z" fill="#CCCCCC" fill-opacity="0.75"/>
<path fill-rule="evenodd" clip-rule="evenodd" d="M154 52.7166C154 54.2339 152.77 55.4572 151.245 55.4572C149.729 55.4572 148.49 54.2339 148.49 52.7166C148.49 51.2088 149.72 49.976 151.245 49.976C152.77 49.976 154 51.2088 154 52.7166Z" fill="#CCCCCC" fill-opacity="0.75"/>
<path fill-rule="evenodd" clip-rule="evenodd" d="M90.2913 78.34C90.2913 79.8572 89.0616 81.0806 87.5363 81.0806C86.0206 81.0806 84.7908 79.8478 84.7908 78.34C84.7908 76.8226 86.0205 75.5993 87.5458 75.5993C89.0616 75.5993 90.2913 76.8226 90.2913 78.34Z" fill="#CCCCCC" fill-opacity="0.75"/>
<path fill-rule="evenodd" clip-rule="evenodd" d="M111.531 78.34C111.531 79.8572 110.301 81.0806 108.776 81.0806C107.26 81.0806 106.021 79.8572 106.021 78.34C106.021 76.8226 107.25 75.5993 108.776 75.5993C110.301 75.5993 111.531 76.8226 111.531 78.34Z" fill="#CCCCCC" fill-opacity="0.75"/>
<path fill-rule="evenodd" clip-rule="evenodd" d="M132.761 78.34C132.761 79.8572 131.531 81.0806 130.006 81.0806C128.48 81.0806 127.251 79.8572 127.251 78.34C127.251 76.8226 128.48 75.5993 130.006 75.5993C131.531 75.5993 132.761 76.8226 132.761 78.34Z" fill="#CCCCCC" fill-opacity="0.75"/>
<path fill-rule="evenodd" clip-rule="evenodd" d="M154 78.34C154 79.8572 152.77 81.0806 151.245 81.0806C149.729 81.0806 148.49 79.8572 148.49 78.34C148.49 76.8226 149.72 75.5993 151.245 75.5993C152.77 75.5993 154 76.8226 154 78.34Z" fill="#CCCCCC" fill-opacity="0.75"/>
</svg>
