<svg width="62" height="828" viewBox="0 0 62 828" fill="none" xmlns="http://www.w3.org/2000/svg">
<g opacity="0.1">
<path fill-rule="evenodd" clip-rule="evenodd" d="M-47.5423 4.73216C-47.5423 7.35205 -49.6567 9.46433 -52.2793 9.46433C-54.8855 9.44795 -57 7.33567 -57 4.73216C-57 2.11228 -54.8855 0 -52.2629 0C-49.6567 0 -47.5423 2.11228 -47.5423 4.73216Z" fill="white"/>
<path fill-rule="evenodd" clip-rule="evenodd" d="M-11.0227 4.73216C-11.0227 7.35205 -13.1372 9.46433 -15.7597 9.46433C-16.6121 9.46433 -17.3989 9.23509 -18.0873 8.85848C-19.5297 8.03976 -20.4804 6.50058 -20.4804 4.74854C-20.4804 2.14503 -18.3659 0.0163735 -15.7434 0.0163735C-13.1372 -7.33882e-07 -11.0227 2.11228 -11.0227 4.73216Z" fill="white"/>
<path fill-rule="evenodd" clip-rule="evenodd" d="M25.4805 4.73216C25.4805 7.35205 23.366 9.46433 20.7434 9.46433C18.1208 9.46433 16.0064 7.35205 16.0064 4.73216C16.0064 2.12866 18.1208 0 20.7434 0C23.366 0 25.4805 2.11228 25.4805 4.73216Z" fill="white"/>
<path fill-rule="evenodd" clip-rule="evenodd" d="M62 4.73216C62 7.35205 59.8856 9.46433 57.263 9.46433C54.6568 9.46433 52.5259 7.35205 52.5259 4.73216C52.5259 2.12866 54.6404 0 57.263 0C59.8856 0 62 2.11228 62 4.73216Z" fill="white"/>
<path fill-rule="evenodd" clip-rule="evenodd" d="M-47.5423 47.6164C-47.5423 50.2363 -49.6567 52.3485 -52.2793 52.3485C-54.9019 52.3485 -57.0164 50.2363 -57.0164 47.6164C-57.0164 44.9965 -54.9019 42.8842 -52.2793 42.8842C-49.6567 42.8842 -47.5423 45.0129 -47.5423 47.6164Z" fill="white"/>
<path fill-rule="evenodd" clip-rule="evenodd" d="M-11.0227 47.6164C-11.0227 50.2363 -13.1372 52.3485 -15.7597 52.3485C-18.3659 52.3485 -20.4968 50.2363 -20.4968 47.6164C-20.4968 44.9965 -18.3823 42.8842 -15.7597 42.8842C-13.1372 42.8842 -11.0227 45.0129 -11.0227 47.6164Z" fill="white"/>
<path fill-rule="evenodd" clip-rule="evenodd" d="M25.4805 47.6164C25.4805 50.2363 23.366 52.3485 20.7434 52.3485C18.1208 52.3485 16.0064 50.2363 16.0064 47.6164C16.0064 44.9965 18.1208 42.8842 20.7434 42.8842C23.366 42.8842 25.4805 45.0129 25.4805 47.6164Z" fill="white"/>
<path fill-rule="evenodd" clip-rule="evenodd" d="M62 47.6164C62 50.2363 59.8856 52.3485 57.263 52.3485C54.6568 52.3485 52.5259 50.2363 52.5259 47.6164C52.5259 44.9965 54.6404 42.8842 57.263 42.8842C59.8856 42.8842 62 45.0129 62 47.6164Z" fill="white"/>
<path fill-rule="evenodd" clip-rule="evenodd" d="M-47.5423 91.0246C-47.5423 93.6444 -49.6567 95.7567 -52.2793 95.7567C-54.9019 95.7567 -57.0164 93.6444 -57.0164 91.0246C-57 88.4211 -54.8855 86.2924 -52.2629 86.2924C-49.6567 86.2924 -47.5423 88.4211 -47.5423 91.0246Z" fill="white"/>
<path fill-rule="evenodd" clip-rule="evenodd" d="M-11.0227 91.0246C-11.0227 93.6444 -13.1372 95.7567 -15.7597 95.7567C-18.3659 95.7567 -20.4968 93.6444 -20.4968 91.0246C-20.4968 88.4211 -18.3823 86.2924 -15.7597 86.2924C-13.1372 86.2924 -11.0227 88.4211 -11.0227 91.0246Z" fill="white"/>
<path fill-rule="evenodd" clip-rule="evenodd" d="M25.4805 91.0246C25.4805 93.6444 23.366 95.7567 20.7434 95.7567C18.1208 95.7567 16.0064 93.6444 16.0064 91.0246C16.0064 88.4211 18.1208 86.2924 20.7434 86.2924C23.366 86.2924 25.4805 88.4211 25.4805 91.0246Z" fill="white"/>
<path fill-rule="evenodd" clip-rule="evenodd" d="M62 91.0246C62 93.6444 59.8856 95.7567 57.263 95.7567C54.6568 95.7567 52.5259 93.6444 52.5259 91.0246C52.5259 88.4211 54.6404 86.2924 57.263 86.2924C59.8856 86.2924 62 88.4211 62 91.0246Z" fill="white"/>
<path fill-rule="evenodd" clip-rule="evenodd" d="M-47.5423 135.268C-47.5423 137.888 -49.6567 140 -52.2793 140C-54.8855 140 -57 137.871 -57 135.268C-57 132.648 -54.8855 130.536 -52.2629 130.536C-49.6567 130.536 -47.5423 132.648 -47.5423 135.268Z" fill="white"/>
<path fill-rule="evenodd" clip-rule="evenodd" d="M-11.0227 135.268C-11.0227 137.888 -13.1372 140 -15.7597 140C-18.3659 140 -20.4968 137.888 -20.4968 135.268C-20.4968 132.648 -18.3823 130.536 -15.7597 130.536C-13.1372 130.536 -11.0227 132.648 -11.0227 135.268Z" fill="white"/>
<path fill-rule="evenodd" clip-rule="evenodd" d="M25.4805 135.268C25.4805 137.888 23.366 140 20.7434 140C18.1208 140 16.0064 137.888 16.0064 135.268C16.0064 132.648 18.1208 130.536 20.7434 130.536C23.366 130.536 25.4805 132.648 25.4805 135.268Z" fill="white"/>
<path fill-rule="evenodd" clip-rule="evenodd" d="M62 135.268C62 137.888 59.8856 140 57.263 140C54.6568 140 52.5259 137.888 52.5259 135.268C52.5259 132.648 54.6404 130.536 57.263 130.536C59.8856 130.536 62 132.648 62 135.268Z" fill="white"/>
<path fill-rule="evenodd" clip-rule="evenodd" d="M-47.5423 348.732C-47.5423 351.352 -49.6567 353.464 -52.2793 353.464C-54.8855 353.448 -57 351.336 -57 348.732C-57 346.112 -54.8855 344 -52.2629 344C-49.6567 344 -47.5423 346.112 -47.5423 348.732Z" fill="white"/>
<path fill-rule="evenodd" clip-rule="evenodd" d="M-11.0227 348.732C-11.0227 351.352 -13.1372 353.464 -15.7597 353.464C-16.6121 353.464 -17.3989 353.235 -18.0873 352.858C-19.5297 352.04 -20.4804 350.501 -20.4804 348.749C-20.4804 346.145 -18.3659 344.016 -15.7434 344.016C-13.1372 344 -11.0227 346.112 -11.0227 348.732Z" fill="white"/>
<path fill-rule="evenodd" clip-rule="evenodd" d="M25.4805 348.732C25.4805 351.352 23.366 353.464 20.7434 353.464C18.1208 353.464 16.0064 351.352 16.0064 348.732C16.0064 346.129 18.1208 344 20.7434 344C23.366 344 25.4805 346.112 25.4805 348.732Z" fill="white"/>
<path fill-rule="evenodd" clip-rule="evenodd" d="M62 348.732C62 351.352 59.8856 353.464 57.263 353.464C54.6568 353.464 52.5259 351.352 52.5259 348.732C52.5259 346.129 54.6404 344 57.263 344C59.8856 344 62 346.112 62 348.732Z" fill="white"/>
<path fill-rule="evenodd" clip-rule="evenodd" d="M-47.5423 391.616C-47.5423 394.236 -49.6567 396.349 -52.2793 396.349C-54.9019 396.349 -57.0164 394.236 -57.0164 391.616C-57.0164 388.996 -54.9019 386.884 -52.2793 386.884C-49.6567 386.884 -47.5423 389.013 -47.5423 391.616Z" fill="white"/>
<path fill-rule="evenodd" clip-rule="evenodd" d="M-11.0227 391.616C-11.0227 394.236 -13.1372 396.349 -15.7597 396.349C-18.3659 396.349 -20.4968 394.236 -20.4968 391.616C-20.4968 388.996 -18.3823 386.884 -15.7597 386.884C-13.1372 386.884 -11.0227 389.013 -11.0227 391.616Z" fill="white"/>
<path fill-rule="evenodd" clip-rule="evenodd" d="M25.4805 391.616C25.4805 394.236 23.366 396.349 20.7434 396.349C18.1208 396.349 16.0064 394.236 16.0064 391.616C16.0064 388.996 18.1208 386.884 20.7434 386.884C23.366 386.884 25.4805 389.013 25.4805 391.616Z" fill="white"/>
<path fill-rule="evenodd" clip-rule="evenodd" d="M62 391.616C62 394.236 59.8856 396.349 57.263 396.349C54.6568 396.349 52.5259 394.236 52.5259 391.616C52.5259 388.996 54.6404 386.884 57.263 386.884C59.8856 386.884 62 389.013 62 391.616Z" fill="white"/>
<path fill-rule="evenodd" clip-rule="evenodd" d="M-47.5423 435.025C-47.5423 437.644 -49.6567 439.757 -52.2793 439.757C-54.9019 439.757 -57.0164 437.644 -57.0164 435.025C-57 432.421 -54.8855 430.292 -52.2629 430.292C-49.6567 430.292 -47.5423 432.421 -47.5423 435.025Z" fill="white"/>
<path fill-rule="evenodd" clip-rule="evenodd" d="M-11.0227 435.025C-11.0227 437.644 -13.1372 439.757 -15.7597 439.757C-18.3659 439.757 -20.4968 437.644 -20.4968 435.025C-20.4968 432.421 -18.3823 430.292 -15.7597 430.292C-13.1372 430.292 -11.0227 432.421 -11.0227 435.025Z" fill="white"/>
<path fill-rule="evenodd" clip-rule="evenodd" d="M25.4805 435.025C25.4805 437.644 23.366 439.757 20.7434 439.757C18.1208 439.757 16.0064 437.644 16.0064 435.025C16.0064 432.421 18.1208 430.292 20.7434 430.292C23.366 430.292 25.4805 432.421 25.4805 435.025Z" fill="white"/>
<path fill-rule="evenodd" clip-rule="evenodd" d="M62 435.025C62 437.644 59.8856 439.757 57.263 439.757C54.6568 439.757 52.5259 437.644 52.5259 435.025C52.5259 432.421 54.6404 430.292 57.263 430.292C59.8856 430.292 62 432.421 62 435.025Z" fill="white"/>
<path fill-rule="evenodd" clip-rule="evenodd" d="M-47.5423 479.268C-47.5423 481.888 -49.6567 484 -52.2793 484C-54.8855 484 -57 481.871 -57 479.268C-57 476.648 -54.8855 474.536 -52.2629 474.536C-49.6567 474.536 -47.5423 476.648 -47.5423 479.268Z" fill="white"/>
<path fill-rule="evenodd" clip-rule="evenodd" d="M-11.0227 479.268C-11.0227 481.888 -13.1372 484 -15.7597 484C-18.3659 484 -20.4968 481.888 -20.4968 479.268C-20.4968 476.648 -18.3823 474.536 -15.7597 474.536C-13.1372 474.536 -11.0227 476.648 -11.0227 479.268Z" fill="white"/>
<path fill-rule="evenodd" clip-rule="evenodd" d="M25.4805 479.268C25.4805 481.888 23.366 484 20.7434 484C18.1208 484 16.0064 481.888 16.0064 479.268C16.0064 476.648 18.1208 474.536 20.7434 474.536C23.366 474.536 25.4805 476.648 25.4805 479.268Z" fill="white"/>
<path fill-rule="evenodd" clip-rule="evenodd" d="M62 479.268C62 481.888 59.8856 484 57.263 484C54.6568 484 52.5259 481.888 52.5259 479.268C52.5259 476.648 54.6404 474.536 57.263 474.536C59.8856 474.536 62 476.648 62 479.268Z" fill="white"/>
<path fill-rule="evenodd" clip-rule="evenodd" d="M-47.5423 176.732C-47.5423 179.352 -49.6567 181.464 -52.2793 181.464C-54.8855 181.448 -57 179.336 -57 176.732C-57 174.112 -54.8855 172 -52.2629 172C-49.6567 172 -47.5423 174.112 -47.5423 176.732Z" fill="white"/>
<path fill-rule="evenodd" clip-rule="evenodd" d="M-11.0227 176.732C-11.0227 179.352 -13.1372 181.464 -15.7597 181.464C-16.6121 181.464 -17.3989 181.235 -18.0873 180.858C-19.5297 180.04 -20.4804 178.501 -20.4804 176.749C-20.4804 174.145 -18.3659 172.016 -15.7434 172.016C-13.1372 172 -11.0227 174.112 -11.0227 176.732Z" fill="white"/>
<path fill-rule="evenodd" clip-rule="evenodd" d="M25.4805 176.732C25.4805 179.352 23.366 181.464 20.7434 181.464C18.1208 181.464 16.0064 179.352 16.0064 176.732C16.0064 174.129 18.1208 172 20.7434 172C23.366 172 25.4805 174.112 25.4805 176.732Z" fill="white"/>
<path fill-rule="evenodd" clip-rule="evenodd" d="M62 176.732C62 179.352 59.8856 181.464 57.263 181.464C54.6568 181.464 52.5259 179.352 52.5259 176.732C52.5259 174.129 54.6404 172 57.263 172C59.8856 172 62 174.112 62 176.732Z" fill="white"/>
<path fill-rule="evenodd" clip-rule="evenodd" d="M-47.5423 219.616C-47.5423 222.236 -49.6567 224.349 -52.2793 224.349C-54.9019 224.349 -57.0164 222.236 -57.0164 219.616C-57.0164 216.996 -54.9019 214.884 -52.2793 214.884C-49.6567 214.884 -47.5423 217.013 -47.5423 219.616Z" fill="white"/>
<path fill-rule="evenodd" clip-rule="evenodd" d="M-11.0227 219.616C-11.0227 222.236 -13.1372 224.349 -15.7597 224.349C-18.3659 224.349 -20.4968 222.236 -20.4968 219.616C-20.4968 216.996 -18.3823 214.884 -15.7597 214.884C-13.1372 214.884 -11.0227 217.013 -11.0227 219.616Z" fill="white"/>
<path fill-rule="evenodd" clip-rule="evenodd" d="M25.4805 219.616C25.4805 222.236 23.366 224.349 20.7434 224.349C18.1208 224.349 16.0064 222.236 16.0064 219.616C16.0064 216.996 18.1208 214.884 20.7434 214.884C23.366 214.884 25.4805 217.013 25.4805 219.616Z" fill="white"/>
<path fill-rule="evenodd" clip-rule="evenodd" d="M62 219.616C62 222.236 59.8856 224.349 57.263 224.349C54.6568 224.349 52.5259 222.236 52.5259 219.616C52.5259 216.996 54.6404 214.884 57.263 214.884C59.8856 214.884 62 217.013 62 219.616Z" fill="white"/>
<path fill-rule="evenodd" clip-rule="evenodd" d="M-47.5423 263.025C-47.5423 265.644 -49.6567 267.757 -52.2793 267.757C-54.9019 267.757 -57.0164 265.644 -57.0164 263.025C-57 260.421 -54.8855 258.292 -52.2629 258.292C-49.6567 258.292 -47.5423 260.421 -47.5423 263.025Z" fill="white"/>
<path fill-rule="evenodd" clip-rule="evenodd" d="M-11.0227 263.025C-11.0227 265.644 -13.1372 267.757 -15.7597 267.757C-18.3659 267.757 -20.4968 265.644 -20.4968 263.025C-20.4968 260.421 -18.3823 258.292 -15.7597 258.292C-13.1372 258.292 -11.0227 260.421 -11.0227 263.025Z" fill="white"/>
<path fill-rule="evenodd" clip-rule="evenodd" d="M25.4805 263.025C25.4805 265.644 23.366 267.757 20.7434 267.757C18.1208 267.757 16.0064 265.644 16.0064 263.025C16.0064 260.421 18.1208 258.292 20.7434 258.292C23.366 258.292 25.4805 260.421 25.4805 263.025Z" fill="white"/>
<path fill-rule="evenodd" clip-rule="evenodd" d="M62 263.025C62 265.644 59.8856 267.757 57.263 267.757C54.6568 267.757 52.5259 265.644 52.5259 263.025C52.5259 260.421 54.6404 258.292 57.263 258.292C59.8856 258.292 62 260.421 62 263.025Z" fill="white"/>
<path fill-rule="evenodd" clip-rule="evenodd" d="M-47.5423 307.268C-47.5423 309.888 -49.6567 312 -52.2793 312C-54.8855 312 -57 309.871 -57 307.268C-57 304.648 -54.8855 302.536 -52.2629 302.536C-49.6567 302.536 -47.5423 304.648 -47.5423 307.268Z" fill="white"/>
<path fill-rule="evenodd" clip-rule="evenodd" d="M-11.0227 307.268C-11.0227 309.888 -13.1372 312 -15.7597 312C-18.3659 312 -20.4968 309.888 -20.4968 307.268C-20.4968 304.648 -18.3823 302.536 -15.7597 302.536C-13.1372 302.536 -11.0227 304.648 -11.0227 307.268Z" fill="white"/>
<path fill-rule="evenodd" clip-rule="evenodd" d="M25.4805 307.268C25.4805 309.888 23.366 312 20.7434 312C18.1208 312 16.0064 309.888 16.0064 307.268C16.0064 304.648 18.1208 302.536 20.7434 302.536C23.366 302.536 25.4805 304.648 25.4805 307.268Z" fill="white"/>
<path fill-rule="evenodd" clip-rule="evenodd" d="M62 307.268C62 309.888 59.8856 312 57.263 312C54.6568 312 52.5259 309.888 52.5259 307.268C52.5259 304.648 54.6404 302.536 57.263 302.536C59.8856 302.536 62 304.648 62 307.268Z" fill="white"/>
<path fill-rule="evenodd" clip-rule="evenodd" d="M-47.5423 520.732C-47.5423 523.352 -49.6567 525.464 -52.2793 525.464C-54.8855 525.448 -57 523.336 -57 520.732C-57 518.112 -54.8855 516 -52.2629 516C-49.6567 516 -47.5423 518.112 -47.5423 520.732Z" fill="white"/>
<path fill-rule="evenodd" clip-rule="evenodd" d="M-11.0227 520.732C-11.0227 523.352 -13.1372 525.464 -15.7597 525.464C-16.6121 525.464 -17.3989 525.235 -18.0873 524.858C-19.5297 524.04 -20.4804 522.501 -20.4804 520.749C-20.4804 518.145 -18.3659 516.016 -15.7434 516.016C-13.1372 516 -11.0227 518.112 -11.0227 520.732Z" fill="white"/>
<path fill-rule="evenodd" clip-rule="evenodd" d="M25.4805 520.732C25.4805 523.352 23.366 525.464 20.7434 525.464C18.1208 525.464 16.0064 523.352 16.0064 520.732C16.0064 518.129 18.1208 516 20.7434 516C23.366 516 25.4805 518.112 25.4805 520.732Z" fill="white"/>
<path fill-rule="evenodd" clip-rule="evenodd" d="M62 520.732C62 523.352 59.8856 525.464 57.263 525.464C54.6568 525.464 52.5259 523.352 52.5259 520.732C52.5259 518.129 54.6404 516 57.263 516C59.8856 516 62 518.112 62 520.732Z" fill="white"/>
<path fill-rule="evenodd" clip-rule="evenodd" d="M-47.5423 563.616C-47.5423 566.236 -49.6567 568.349 -52.2793 568.349C-54.9019 568.349 -57.0164 566.236 -57.0164 563.616C-57.0164 560.997 -54.9019 558.884 -52.2793 558.884C-49.6567 558.884 -47.5423 561.013 -47.5423 563.616Z" fill="white"/>
<path fill-rule="evenodd" clip-rule="evenodd" d="M-11.0227 563.616C-11.0227 566.236 -13.1372 568.349 -15.7597 568.349C-18.3659 568.349 -20.4968 566.236 -20.4968 563.616C-20.4968 560.997 -18.3823 558.884 -15.7597 558.884C-13.1372 558.884 -11.0227 561.013 -11.0227 563.616Z" fill="white"/>
<path fill-rule="evenodd" clip-rule="evenodd" d="M25.4805 563.616C25.4805 566.236 23.366 568.349 20.7434 568.349C18.1208 568.349 16.0064 566.236 16.0064 563.616C16.0064 560.997 18.1208 558.884 20.7434 558.884C23.366 558.884 25.4805 561.013 25.4805 563.616Z" fill="white"/>
<path fill-rule="evenodd" clip-rule="evenodd" d="M62 563.616C62 566.236 59.8856 568.349 57.263 568.349C54.6568 568.349 52.5259 566.236 52.5259 563.616C52.5259 560.997 54.6404 558.884 57.263 558.884C59.8856 558.884 62 561.013 62 563.616Z" fill="white"/>
<path fill-rule="evenodd" clip-rule="evenodd" d="M-47.5423 607.025C-47.5423 609.644 -49.6567 611.757 -52.2793 611.757C-54.9019 611.757 -57.0164 609.644 -57.0164 607.025C-57 604.421 -54.8855 602.292 -52.2629 602.292C-49.6567 602.292 -47.5423 604.421 -47.5423 607.025Z" fill="white"/>
<path fill-rule="evenodd" clip-rule="evenodd" d="M-11.0227 607.025C-11.0227 609.644 -13.1372 611.757 -15.7597 611.757C-18.3659 611.757 -20.4968 609.644 -20.4968 607.025C-20.4968 604.421 -18.3823 602.292 -15.7597 602.292C-13.1372 602.292 -11.0227 604.421 -11.0227 607.025Z" fill="white"/>
<path fill-rule="evenodd" clip-rule="evenodd" d="M25.4805 607.025C25.4805 609.644 23.366 611.757 20.7434 611.757C18.1208 611.757 16.0064 609.644 16.0064 607.025C16.0064 604.421 18.1208 602.292 20.7434 602.292C23.366 602.292 25.4805 604.421 25.4805 607.025Z" fill="white"/>
<path fill-rule="evenodd" clip-rule="evenodd" d="M62 607.025C62 609.644 59.8856 611.757 57.263 611.757C54.6568 611.757 52.5259 609.644 52.5259 607.025C52.5259 604.421 54.6404 602.292 57.263 602.292C59.8856 602.292 62 604.421 62 607.025Z" fill="white"/>
<path fill-rule="evenodd" clip-rule="evenodd" d="M-47.5423 651.268C-47.5423 653.888 -49.6567 656 -52.2793 656C-54.8855 656 -57 653.871 -57 651.268C-57 648.648 -54.8855 646.536 -52.2629 646.536C-49.6567 646.536 -47.5423 648.648 -47.5423 651.268Z" fill="white"/>
<path fill-rule="evenodd" clip-rule="evenodd" d="M-11.0227 651.268C-11.0227 653.888 -13.1372 656 -15.7597 656C-18.3659 656 -20.4968 653.888 -20.4968 651.268C-20.4968 648.648 -18.3823 646.536 -15.7597 646.536C-13.1372 646.536 -11.0227 648.648 -11.0227 651.268Z" fill="white"/>
<path fill-rule="evenodd" clip-rule="evenodd" d="M25.4805 651.268C25.4805 653.888 23.366 656 20.7434 656C18.1208 656 16.0064 653.888 16.0064 651.268C16.0064 648.648 18.1208 646.536 20.7434 646.536C23.366 646.536 25.4805 648.648 25.4805 651.268Z" fill="white"/>
<path fill-rule="evenodd" clip-rule="evenodd" d="M62 651.268C62 653.888 59.8856 656 57.263 656C54.6568 656 52.5259 653.888 52.5259 651.268C52.5259 648.648 54.6404 646.536 57.263 646.536C59.8856 646.536 62 648.648 62 651.268Z" fill="white"/>
<path fill-rule="evenodd" clip-rule="evenodd" d="M-47.5423 692.732C-47.5423 695.352 -49.6567 697.464 -52.2793 697.464C-54.8855 697.448 -57 695.336 -57 692.732C-57 690.112 -54.8855 688 -52.2629 688C-49.6567 688 -47.5423 690.112 -47.5423 692.732Z" fill="white"/>
<path fill-rule="evenodd" clip-rule="evenodd" d="M-11.0227 692.732C-11.0227 695.352 -13.1372 697.464 -15.7597 697.464C-16.6121 697.464 -17.3989 697.235 -18.0873 696.858C-19.5297 696.04 -20.4804 694.501 -20.4804 692.749C-20.4804 690.145 -18.3659 688.016 -15.7434 688.016C-13.1372 688 -11.0227 690.112 -11.0227 692.732Z" fill="white"/>
<path fill-rule="evenodd" clip-rule="evenodd" d="M25.4805 692.732C25.4805 695.352 23.366 697.464 20.7434 697.464C18.1208 697.464 16.0064 695.352 16.0064 692.732C16.0064 690.129 18.1208 688 20.7434 688C23.366 688 25.4805 690.112 25.4805 692.732Z" fill="white"/>
<path fill-rule="evenodd" clip-rule="evenodd" d="M62 692.732C62 695.352 59.8856 697.464 57.263 697.464C54.6568 697.464 52.5259 695.352 52.5259 692.732C52.5259 690.129 54.6404 688 57.263 688C59.8856 688 62 690.112 62 692.732Z" fill="white"/>
<path fill-rule="evenodd" clip-rule="evenodd" d="M-47.5423 735.616C-47.5423 738.236 -49.6567 740.349 -52.2793 740.349C-54.9019 740.349 -57.0164 738.236 -57.0164 735.616C-57.0164 732.997 -54.9019 730.884 -52.2793 730.884C-49.6567 730.884 -47.5423 733.013 -47.5423 735.616Z" fill="white"/>
<path fill-rule="evenodd" clip-rule="evenodd" d="M-11.0227 735.616C-11.0227 738.236 -13.1372 740.349 -15.7597 740.349C-18.3659 740.349 -20.4968 738.236 -20.4968 735.616C-20.4968 732.997 -18.3823 730.884 -15.7597 730.884C-13.1372 730.884 -11.0227 733.013 -11.0227 735.616Z" fill="white"/>
<path fill-rule="evenodd" clip-rule="evenodd" d="M25.4805 735.616C25.4805 738.236 23.366 740.349 20.7434 740.349C18.1208 740.349 16.0064 738.236 16.0064 735.616C16.0064 732.997 18.1208 730.884 20.7434 730.884C23.366 730.884 25.4805 733.013 25.4805 735.616Z" fill="white"/>
<path fill-rule="evenodd" clip-rule="evenodd" d="M62 735.616C62 738.236 59.8856 740.349 57.263 740.349C54.6568 740.349 52.5259 738.236 52.5259 735.616C52.5259 732.997 54.6404 730.884 57.263 730.884C59.8856 730.884 62 733.013 62 735.616Z" fill="white"/>
<path fill-rule="evenodd" clip-rule="evenodd" d="M-47.5423 779.025C-47.5423 781.644 -49.6567 783.757 -52.2793 783.757C-54.9019 783.757 -57.0164 781.644 -57.0164 779.025C-57 776.421 -54.8855 774.292 -52.2629 774.292C-49.6567 774.292 -47.5423 776.421 -47.5423 779.025Z" fill="white"/>
<path fill-rule="evenodd" clip-rule="evenodd" d="M-11.0227 779.025C-11.0227 781.644 -13.1372 783.757 -15.7597 783.757C-18.3659 783.757 -20.4968 781.644 -20.4968 779.025C-20.4968 776.421 -18.3823 774.292 -15.7597 774.292C-13.1372 774.292 -11.0227 776.421 -11.0227 779.025Z" fill="white"/>
<path fill-rule="evenodd" clip-rule="evenodd" d="M25.4805 779.025C25.4805 781.644 23.366 783.757 20.7434 783.757C18.1208 783.757 16.0064 781.644 16.0064 779.025C16.0064 776.421 18.1208 774.292 20.7434 774.292C23.366 774.292 25.4805 776.421 25.4805 779.025Z" fill="white"/>
<path fill-rule="evenodd" clip-rule="evenodd" d="M62 779.025C62 781.644 59.8856 783.757 57.263 783.757C54.6568 783.757 52.5259 781.644 52.5259 779.025C52.5259 776.421 54.6404 774.292 57.263 774.292C59.8856 774.292 62 776.421 62 779.025Z" fill="white"/>
<path fill-rule="evenodd" clip-rule="evenodd" d="M-47.5423 823.268C-47.5423 825.888 -49.6567 828 -52.2793 828C-54.8855 828 -57 825.871 -57 823.268C-57 820.648 -54.8855 818.536 -52.2629 818.536C-49.6567 818.536 -47.5423 820.648 -47.5423 823.268Z" fill="white"/>
<path fill-rule="evenodd" clip-rule="evenodd" d="M-11.0227 823.268C-11.0227 825.888 -13.1372 828 -15.7597 828C-18.3659 828 -20.4968 825.888 -20.4968 823.268C-20.4968 820.648 -18.3823 818.536 -15.7597 818.536C-13.1372 818.536 -11.0227 820.648 -11.0227 823.268Z" fill="white"/>
<path fill-rule="evenodd" clip-rule="evenodd" d="M25.4805 823.268C25.4805 825.888 23.366 828 20.7434 828C18.1208 828 16.0064 825.888 16.0064 823.268C16.0064 820.648 18.1208 818.536 20.7434 818.536C23.366 818.536 25.4805 820.648 25.4805 823.268Z" fill="white"/>
<path fill-rule="evenodd" clip-rule="evenodd" d="M62 823.268C62 825.888 59.8856 828 57.263 828C54.6568 828 52.5259 825.888 52.5259 823.268C52.5259 820.648 54.6404 818.536 57.263 818.536C59.8856 818.536 62 820.648 62 823.268Z" fill="white"/>
</g>
</svg>
