<svg width="51" height="23" viewBox="0 0 51 23" fill="none" xmlns="http://www.w3.org/2000/svg">
<path d="M18.0723 19.3633C17.2812 20.2422 16.124 20.9502 14.6006 21.4873C13.0771 22.0244 11.4072 22.293 9.59082 22.293C6.79785 22.293 4.56641 21.4385 2.89648 19.7295C1.22656 18.0205 0.333008 15.6426 0.21582 12.5957L0.201172 10.75C0.201172 8.65039 0.572266 6.81934 1.31445 5.25684C2.05664 3.68457 3.11621 2.47852 4.49316 1.63867C5.87988 0.789062 7.48145 0.364258 9.29785 0.364258C11.9541 0.364258 14.0146 0.974609 15.4795 2.19531C16.9541 3.40625 17.8135 5.21777 18.0576 7.62988H13.1064C12.9307 6.43848 12.5498 5.58887 11.9639 5.08105C11.3779 4.57324 10.5479 4.31934 9.47363 4.31934C8.18457 4.31934 7.18848 4.86621 6.48535 5.95996C5.78223 7.05371 5.42578 8.61621 5.41602 10.6475V11.9365C5.41602 14.0654 5.77734 15.667 6.5 16.7412C7.23242 17.8057 8.37988 18.3379 9.94238 18.3379C11.2803 18.3379 12.2764 18.04 12.9307 17.4443V14.1338H9.35645V10.6035H18.0723V19.3633ZM40.6221 11.7754C40.6221 13.8555 40.2363 15.6963 39.4648 17.2979C38.6934 18.8994 37.5947 20.1348 36.1689 21.0039C34.7529 21.8633 33.1367 22.293 31.3203 22.293C29.5039 22.293 27.8926 21.8779 26.4863 21.0479C25.0801 20.208 23.9814 19.0117 23.1904 17.459C22.4092 15.9062 21.999 14.124 21.96 12.1123V10.9111C21.96 8.82129 22.3408 6.98047 23.1025 5.38867C23.874 3.78711 24.9727 2.55176 26.3984 1.68262C27.834 0.813477 29.4648 0.378906 31.291 0.378906C33.0977 0.378906 34.709 0.808594 36.125 1.66797C37.541 2.52734 38.6396 3.75293 39.4209 5.34473C40.2119 6.92676 40.6123 8.74316 40.6221 10.7939V11.7754ZM35.3926 10.8818C35.3926 8.7627 35.0361 7.15625 34.3232 6.0625C33.6201 4.95898 32.6094 4.40723 31.291 4.40723C28.7129 4.40723 27.3506 6.34082 27.2041 10.208L27.1895 11.7754C27.1895 13.8652 27.5361 15.4717 28.2295 16.5947C28.9229 17.7178 29.9531 18.2793 31.3203 18.2793C32.6191 18.2793 33.6201 17.7275 34.3232 16.624C35.0264 15.5205 35.3828 13.9336 35.3926 11.8633V10.8818ZM49.4463 15.2471H45.4473L44.8174 0.671875H50.0762L49.4463 15.2471ZM44.6709 19.7881C44.6709 19.0654 44.9297 18.4746 45.4473 18.0156C45.9746 17.5469 46.6289 17.3125 47.4102 17.3125C48.1914 17.3125 48.8408 17.5469 49.3584 18.0156C49.8857 18.4746 50.1494 19.0654 50.1494 19.7881C50.1494 20.5107 49.8857 21.1064 49.3584 21.5752C48.8408 22.0342 48.1914 22.2637 47.4102 22.2637C46.6289 22.2637 45.9746 22.0342 45.4473 21.5752C44.9297 21.1064 44.6709 20.5107 44.6709 19.7881Z" fill="white"/>
</svg>
