<svg width="165" height="196" viewBox="0 0 165 196" fill="none" xmlns="http://www.w3.org/2000/svg">
<path fill-rule="evenodd" clip-rule="evenodd" d="M5.90362 111.634C5.90362 113.268 4.58603 114.585 2.95181 114.585C1.32781 114.575 0.0102184 113.258 0.0102184 111.634C0.0102184 110 1.32781 108.682 2.96203 108.682C4.58603 108.682 5.90362 110 5.90362 111.634Z" fill="#CCCCCC" fill-opacity="0.5"/>
<path fill-rule="evenodd" clip-rule="evenodd" d="M28.6601 111.634C28.6601 113.268 27.3425 114.585 25.7083 114.585C25.1772 114.585 24.6869 114.442 24.2579 114.207C23.3591 113.697 22.7667 112.737 22.7667 111.644C22.7667 110.02 24.0843 108.693 25.7185 108.693C27.3425 108.682 28.6601 110 28.6601 111.634Z" fill="#CCCCCC" fill-opacity="0.5"/>
<path fill-rule="evenodd" clip-rule="evenodd" d="M51.4064 111.634C51.4064 113.268 50.0888 114.585 48.4546 114.585C46.8204 114.585 45.5028 113.268 45.5028 111.634C45.5028 110.01 46.8204 108.682 48.4546 108.682C50.0888 108.682 51.4064 110 51.4064 111.634Z" fill="#CCCCCC" fill-opacity="0.5"/>
<path fill-rule="evenodd" clip-rule="evenodd" d="M74.1629 111.634C74.1629 113.268 72.8453 114.585 71.2111 114.585C69.5871 114.585 68.2593 113.268 68.2593 111.634C68.2593 110.01 69.5769 108.682 71.2111 108.682C72.8453 108.682 74.1629 110 74.1629 111.634Z" fill="#CCCCCC" fill-opacity="0.5"/>
<path fill-rule="evenodd" clip-rule="evenodd" d="M5.90362 138.381C5.90362 140.015 4.58603 141.332 2.95181 141.332C1.31759 141.332 0 140.015 0 138.381C0 136.747 1.31759 135.429 2.95181 135.429C4.58603 135.429 5.90362 136.757 5.90362 138.381Z" fill="#CCCCCC" fill-opacity="0.5"/>
<path fill-rule="evenodd" clip-rule="evenodd" d="M28.6601 138.381C28.6601 140.015 27.3425 141.332 25.7083 141.332C24.0843 141.332 22.7565 140.015 22.7565 138.381C22.7565 136.747 24.0741 135.429 25.7083 135.429C27.3425 135.429 28.6601 136.757 28.6601 138.381Z" fill="#CCCCCC" fill-opacity="0.5"/>
<path fill-rule="evenodd" clip-rule="evenodd" d="M51.4064 138.381C51.4064 140.015 50.0888 141.332 48.4546 141.332C46.8204 141.332 45.5028 140.015 45.5028 138.381C45.5028 136.747 46.8204 135.429 48.4546 135.429C50.0888 135.429 51.4064 136.757 51.4064 138.381Z" fill="#CCCCCC" fill-opacity="0.5"/>
<path fill-rule="evenodd" clip-rule="evenodd" d="M74.1629 138.381C74.1629 140.015 72.8453 141.332 71.2111 141.332C69.5871 141.332 68.2593 140.015 68.2593 138.381C68.2593 136.747 69.5769 135.429 71.2111 135.429C72.8453 135.429 74.1629 136.757 74.1629 138.381Z" fill="#CCCCCC" fill-opacity="0.5"/>
<path fill-rule="evenodd" clip-rule="evenodd" d="M5.90362 165.454C5.90362 167.088 4.58603 168.406 2.95181 168.406C1.31759 168.406 0 167.088 0 165.454C0.0102139 163.83 1.3278 162.503 2.96202 162.503C4.58603 162.503 5.90362 163.83 5.90362 165.454Z" fill="#CCCCCC" fill-opacity="0.5"/>
<path fill-rule="evenodd" clip-rule="evenodd" d="M28.6601 165.454C28.6601 167.088 27.3425 168.406 25.7083 168.406C24.0843 168.406 22.7565 167.088 22.7565 165.454C22.7565 163.83 24.0741 162.503 25.7083 162.503C27.3425 162.503 28.6601 163.83 28.6601 165.454Z" fill="#CCCCCC" fill-opacity="0.5"/>
<path fill-rule="evenodd" clip-rule="evenodd" d="M51.4064 165.454C51.4064 167.088 50.0888 168.406 48.4546 168.406C46.8204 168.406 45.5028 167.088 45.5028 165.454C45.5028 163.83 46.8204 162.503 48.4546 162.503C50.0888 162.503 51.4064 163.83 51.4064 165.454Z" fill="#CCCCCC" fill-opacity="0.5"/>
<path fill-rule="evenodd" clip-rule="evenodd" d="M74.1629 165.454C74.1629 167.088 72.8453 168.406 71.2111 168.406C69.5871 168.406 68.2593 167.088 68.2593 165.454C68.2593 163.83 69.5769 162.503 71.2111 162.503C72.8453 162.503 74.1629 163.83 74.1629 165.454Z" fill="#CCCCCC" fill-opacity="0.5"/>
<path fill-rule="evenodd" clip-rule="evenodd" d="M5.90362 193.049C5.90362 194.683 4.58603 196 2.95181 196C1.32781 196 0.0102184 194.672 0.0102184 193.049C0.0102184 191.415 1.32781 190.097 2.96203 190.097C4.58603 190.097 5.90362 191.415 5.90362 193.049Z" fill="#CCCCCC" fill-opacity="0.5"/>
<path fill-rule="evenodd" clip-rule="evenodd" d="M28.6601 193.049C28.6601 194.683 27.3425 196 25.7083 196C24.0843 196 22.7565 194.683 22.7565 193.049C22.7565 191.415 24.0741 190.097 25.7083 190.097C27.3425 190.097 28.6601 191.415 28.6601 193.049Z" fill="#CCCCCC" fill-opacity="0.5"/>
<path fill-rule="evenodd" clip-rule="evenodd" d="M51.4064 193.049C51.4064 194.683 50.0888 196 48.4546 196C46.8204 196 45.5028 194.683 45.5028 193.049C45.5028 191.415 46.8204 190.097 48.4546 190.097C50.0888 190.097 51.4064 191.415 51.4064 193.049Z" fill="#CCCCCC" fill-opacity="0.5"/>
<path fill-rule="evenodd" clip-rule="evenodd" d="M74.1629 193.049C74.1629 194.683 72.8453 196 71.2111 196C69.5871 196 68.2593 194.683 68.2593 193.049C68.2593 191.415 69.5769 190.097 71.2111 190.097C72.8453 190.097 74.1629 191.415 74.1629 193.049Z" fill="#CCCCCC" fill-opacity="0.5"/>
<path fill-rule="evenodd" clip-rule="evenodd" d="M5.90362 2.95144C5.90362 4.58545 4.58603 5.90287 2.95181 5.90287C1.32781 5.89266 0.0102184 4.57524 0.0102184 2.95144C0.0102184 1.31742 1.32781 0 2.96203 0C4.58603 0 5.90362 1.31742 5.90362 2.95144Z" fill="#CCCCCC" fill-opacity="0.5"/>
<path fill-rule="evenodd" clip-rule="evenodd" d="M28.6601 2.95144C28.6601 4.58545 27.3425 5.90287 25.7083 5.90287C25.1772 5.90287 24.6869 5.7599 24.2579 5.52501C23.3591 5.01438 22.7667 4.0544 22.7667 2.96165C22.7667 1.33785 24.0843 0.0102172 25.7185 0.0102172C27.3425 4.6275e-06 28.6601 1.31743 28.6601 2.95144Z" fill="#CCCCCC" fill-opacity="0.5"/>
<path fill-rule="evenodd" clip-rule="evenodd" d="M51.4064 2.95144C51.4064 4.58545 50.0888 5.90287 48.4546 5.90287C46.8204 5.90287 45.5028 4.58545 45.5028 2.95144C45.5028 1.32764 46.8204 0 48.4546 0C50.0888 0 51.4064 1.31742 51.4064 2.95144Z" fill="#CCCCCC" fill-opacity="0.5"/>
<path fill-rule="evenodd" clip-rule="evenodd" d="M74.1629 2.95144C74.1629 4.58545 72.8453 5.90287 71.2111 5.90287C69.5871 5.90287 68.2593 4.58545 68.2593 2.95144C68.2593 1.32764 69.5769 0 71.2111 0C72.8453 0 74.1629 1.31742 74.1629 2.95144Z" fill="#CCCCCC" fill-opacity="0.5"/>
<path fill-rule="evenodd" clip-rule="evenodd" d="M5.90362 29.6982C5.90362 31.3322 4.58603 32.6496 2.95181 32.6496C1.31759 32.6496 0 31.3322 0 29.6982C0 28.0642 1.31759 26.7467 2.95181 26.7467C4.58603 26.7467 5.90362 28.0744 5.90362 29.6982Z" fill="#CCCCCC" fill-opacity="0.5"/>
<path fill-rule="evenodd" clip-rule="evenodd" d="M28.6601 29.6982C28.6601 31.3322 27.3425 32.6496 25.7083 32.6496C24.0843 32.6496 22.7565 31.3322 22.7565 29.6982C22.7565 28.0642 24.0741 26.7467 25.7083 26.7467C27.3425 26.7467 28.6601 28.0744 28.6601 29.6982Z" fill="#CCCCCC" fill-opacity="0.5"/>
<path fill-rule="evenodd" clip-rule="evenodd" d="M51.4064 29.6982C51.4064 31.3322 50.0888 32.6496 48.4546 32.6496C46.8204 32.6496 45.5028 31.3322 45.5028 29.6982C45.5028 28.0642 46.8204 26.7467 48.4546 26.7467C50.0888 26.7467 51.4064 28.0744 51.4064 29.6982Z" fill="#CCCCCC" fill-opacity="0.5"/>
<path fill-rule="evenodd" clip-rule="evenodd" d="M74.1629 29.6982C74.1629 31.3322 72.8453 32.6496 71.2111 32.6496C69.5871 32.6496 68.2593 31.3322 68.2593 29.6982C68.2593 28.0642 69.5769 26.7467 71.2111 26.7467C72.8453 26.7467 74.1629 28.0744 74.1629 29.6982Z" fill="#CCCCCC" fill-opacity="0.5"/>
<path fill-rule="evenodd" clip-rule="evenodd" d="M5.90362 56.7717C5.90362 58.4057 4.58603 59.7232 2.95181 59.7232C1.31759 59.7232 0 58.4057 0 56.7717C0.0102139 55.1479 1.3278 53.8203 2.96202 53.8203C4.58603 53.8203 5.90362 55.1479 5.90362 56.7717Z" fill="#CCCCCC" fill-opacity="0.5"/>
<path fill-rule="evenodd" clip-rule="evenodd" d="M28.6601 56.7717C28.6601 58.4057 27.3425 59.7232 25.7083 59.7232C24.0843 59.7232 22.7565 58.4057 22.7565 56.7717C22.7565 55.1479 24.0741 53.8203 25.7083 53.8203C27.3425 53.8203 28.6601 55.1479 28.6601 56.7717Z" fill="#CCCCCC" fill-opacity="0.5"/>
<path fill-rule="evenodd" clip-rule="evenodd" d="M51.4064 56.7717C51.4064 58.4057 50.0888 59.7232 48.4546 59.7232C46.8204 59.7232 45.5028 58.4057 45.5028 56.7717C45.5028 55.1479 46.8204 53.8203 48.4546 53.8203C50.0888 53.8203 51.4064 55.1479 51.4064 56.7717Z" fill="#CCCCCC" fill-opacity="0.5"/>
<path fill-rule="evenodd" clip-rule="evenodd" d="M74.1629 56.7717C74.1629 58.4057 72.8453 59.7232 71.2111 59.7232C69.5871 59.7232 68.2593 58.4057 68.2593 56.7717C68.2593 55.1479 69.5769 53.8203 71.2111 53.8203C72.8453 53.8203 74.1629 55.1479 74.1629 56.7717Z" fill="#CCCCCC" fill-opacity="0.5"/>
<path fill-rule="evenodd" clip-rule="evenodd" d="M5.90362 84.3661C5.90362 86.0001 4.58603 87.3175 2.95181 87.3175C1.32781 87.3175 0.0102184 85.9899 0.0102184 84.3661C0.0102184 82.7321 1.32781 81.4147 2.96203 81.4147C4.58603 81.4147 5.90362 82.7321 5.90362 84.3661Z" fill="#CCCCCC" fill-opacity="0.5"/>
<path fill-rule="evenodd" clip-rule="evenodd" d="M28.6601 84.3661C28.6601 86.0001 27.3425 87.3175 25.7083 87.3175C24.0843 87.3175 22.7565 86.0001 22.7565 84.3661C22.7565 82.7321 24.0741 81.4147 25.7083 81.4147C27.3425 81.4147 28.6601 82.7321 28.6601 84.3661Z" fill="#CCCCCC" fill-opacity="0.5"/>
<path fill-rule="evenodd" clip-rule="evenodd" d="M51.4064 84.3661C51.4064 86.0001 50.0888 87.3175 48.4546 87.3175C46.8204 87.3175 45.5028 86.0001 45.5028 84.3661C45.5028 82.7321 46.8204 81.4147 48.4546 81.4147C50.0888 81.4147 51.4064 82.7321 51.4064 84.3661Z" fill="#CCCCCC" fill-opacity="0.5"/>
<path fill-rule="evenodd" clip-rule="evenodd" d="M74.1629 84.3661C74.1629 86.0001 72.8453 87.3175 71.2111 87.3175C69.5871 87.3175 68.2593 86.0001 68.2593 84.3661C68.2593 82.7321 69.5769 81.4147 71.2111 81.4147C72.8453 81.4147 74.1629 82.7321 74.1629 84.3661Z" fill="#CCCCCC" fill-opacity="0.5"/>
<path fill-rule="evenodd" clip-rule="evenodd" d="M96.7407 111.634C96.7407 113.268 95.4231 114.585 93.7889 114.585C92.1649 114.575 90.8473 113.258 90.8473 111.634C90.8473 110 92.1649 108.682 93.7991 108.682C95.4231 108.682 96.7407 110 96.7407 111.634Z" fill="#CCCCCC" fill-opacity="0.5"/>
<path fill-rule="evenodd" clip-rule="evenodd" d="M119.497 111.634C119.497 113.268 118.18 114.585 116.545 114.585C116.014 114.585 115.524 114.442 115.095 114.207C114.196 113.697 113.604 112.737 113.604 111.644C113.604 110.02 114.921 108.693 116.556 108.693C118.18 108.682 119.497 110 119.497 111.634Z" fill="#CCCCCC" fill-opacity="0.5"/>
<path fill-rule="evenodd" clip-rule="evenodd" d="M142.243 111.634C142.243 113.268 140.926 114.585 139.292 114.585C137.657 114.585 136.34 113.268 136.34 111.634C136.34 110.01 137.657 108.682 139.292 108.682C140.926 108.682 142.243 110 142.243 111.634Z" fill="#CCCCCC" fill-opacity="0.5"/>
<path fill-rule="evenodd" clip-rule="evenodd" d="M165 111.634C165 113.268 163.682 114.585 162.048 114.585C160.424 114.585 159.096 113.268 159.096 111.634C159.096 110.01 160.414 108.682 162.048 108.682C163.682 108.682 165 110 165 111.634Z" fill="#CCCCCC" fill-opacity="0.5"/>
<path fill-rule="evenodd" clip-rule="evenodd" d="M96.7407 138.381C96.7407 140.015 95.4231 141.332 93.7889 141.332C92.1547 141.332 90.8371 140.015 90.8371 138.381C90.8371 136.747 92.1547 135.429 93.7889 135.429C95.4231 135.429 96.7407 136.757 96.7407 138.381Z" fill="#CCCCCC" fill-opacity="0.5"/>
<path fill-rule="evenodd" clip-rule="evenodd" d="M119.497 138.381C119.497 140.015 118.18 141.332 116.545 141.332C114.921 141.332 113.594 140.015 113.594 138.381C113.594 136.747 114.911 135.429 116.545 135.429C118.18 135.429 119.497 136.757 119.497 138.381Z" fill="#CCCCCC" fill-opacity="0.5"/>
<path fill-rule="evenodd" clip-rule="evenodd" d="M142.243 138.381C142.243 140.015 140.926 141.332 139.292 141.332C137.657 141.332 136.34 140.015 136.34 138.381C136.34 136.747 137.657 135.429 139.292 135.429C140.926 135.429 142.243 136.757 142.243 138.381Z" fill="#CCCCCC" fill-opacity="0.5"/>
<path fill-rule="evenodd" clip-rule="evenodd" d="M165 138.381C165 140.015 163.682 141.332 162.048 141.332C160.424 141.332 159.096 140.015 159.096 138.381C159.096 136.747 160.414 135.429 162.048 135.429C163.682 135.429 165 136.757 165 138.381Z" fill="#CCCCCC" fill-opacity="0.5"/>
<path fill-rule="evenodd" clip-rule="evenodd" d="M96.7407 165.454C96.7407 167.088 95.4231 168.406 93.7889 168.406C92.1547 168.406 90.8371 167.088 90.8371 165.454C90.8473 163.83 92.1649 162.503 93.7991 162.503C95.4231 162.503 96.7407 163.83 96.7407 165.454Z" fill="#CCCCCC" fill-opacity="0.5"/>
<path fill-rule="evenodd" clip-rule="evenodd" d="M119.497 165.454C119.497 167.088 118.18 168.406 116.545 168.406C114.921 168.406 113.594 167.088 113.594 165.454C113.594 163.83 114.911 162.503 116.545 162.503C118.18 162.503 119.497 163.83 119.497 165.454Z" fill="#CCCCCC" fill-opacity="0.5"/>
<path fill-rule="evenodd" clip-rule="evenodd" d="M142.243 165.454C142.243 167.088 140.926 168.406 139.292 168.406C137.657 168.406 136.34 167.088 136.34 165.454C136.34 163.83 137.657 162.503 139.292 162.503C140.926 162.503 142.243 163.83 142.243 165.454Z" fill="#CCCCCC" fill-opacity="0.5"/>
<path fill-rule="evenodd" clip-rule="evenodd" d="M165 165.454C165 167.088 163.682 168.406 162.048 168.406C160.424 168.406 159.096 167.088 159.096 165.454C159.096 163.83 160.414 162.503 162.048 162.503C163.682 162.503 165 163.83 165 165.454Z" fill="#CCCCCC" fill-opacity="0.5"/>
<path fill-rule="evenodd" clip-rule="evenodd" d="M96.7407 193.049C96.7407 194.683 95.4231 196 93.7889 196C92.1649 196 90.8473 194.672 90.8473 193.049C90.8473 191.415 92.1649 190.097 93.7991 190.097C95.4231 190.097 96.7407 191.415 96.7407 193.049Z" fill="#CCCCCC" fill-opacity="0.5"/>
<path fill-rule="evenodd" clip-rule="evenodd" d="M119.497 193.049C119.497 194.683 118.18 196 116.545 196C114.921 196 113.594 194.683 113.594 193.049C113.594 191.415 114.911 190.097 116.545 190.097C118.18 190.097 119.497 191.415 119.497 193.049Z" fill="#CCCCCC" fill-opacity="0.5"/>
<path fill-rule="evenodd" clip-rule="evenodd" d="M142.243 193.049C142.243 194.683 140.926 196 139.292 196C137.657 196 136.34 194.683 136.34 193.049C136.34 191.415 137.657 190.097 139.292 190.097C140.926 190.097 142.243 191.415 142.243 193.049Z" fill="#CCCCCC" fill-opacity="0.5"/>
<path fill-rule="evenodd" clip-rule="evenodd" d="M165 193.049C165 194.683 163.682 196 162.048 196C160.424 196 159.096 194.683 159.096 193.049C159.096 191.415 160.414 190.097 162.048 190.097C163.682 190.097 165 191.415 165 193.049Z" fill="#CCCCCC" fill-opacity="0.5"/>
<path fill-rule="evenodd" clip-rule="evenodd" d="M96.7407 2.95144C96.7407 4.58545 95.4231 5.90287 93.7889 5.90287C92.1649 5.89266 90.8473 4.57524 90.8473 2.95144C90.8473 1.31742 92.1649 0 93.7991 0C95.4231 0 96.7407 1.31742 96.7407 2.95144Z" fill="#CCCCCC" fill-opacity="0.5"/>
<path fill-rule="evenodd" clip-rule="evenodd" d="M119.497 2.95144C119.497 4.58545 118.18 5.90287 116.545 5.90287C116.014 5.90287 115.524 5.7599 115.095 5.52501C114.196 5.01438 113.604 4.0544 113.604 2.96165C113.604 1.33785 114.921 0.0102172 116.556 0.0102172C118.18 4.6275e-06 119.497 1.31743 119.497 2.95144Z" fill="#CCCCCC" fill-opacity="0.5"/>
<path fill-rule="evenodd" clip-rule="evenodd" d="M142.243 2.95144C142.243 4.58545 140.926 5.90287 139.292 5.90287C137.657 5.90287 136.34 4.58545 136.34 2.95144C136.34 1.32764 137.657 0 139.292 0C140.926 0 142.243 1.31742 142.243 2.95144Z" fill="#CCCCCC" fill-opacity="0.5"/>
<path fill-rule="evenodd" clip-rule="evenodd" d="M165 2.95144C165 4.58545 163.682 5.90287 162.048 5.90287C160.424 5.90287 159.096 4.58545 159.096 2.95144C159.096 1.32764 160.414 0 162.048 0C163.682 0 165 1.31742 165 2.95144Z" fill="#CCCCCC" fill-opacity="0.5"/>
<path fill-rule="evenodd" clip-rule="evenodd" d="M96.7407 29.6982C96.7407 31.3322 95.4231 32.6496 93.7889 32.6496C92.1547 32.6496 90.8371 31.3322 90.8371 29.6982C90.8371 28.0642 92.1547 26.7467 93.7889 26.7467C95.4231 26.7467 96.7407 28.0744 96.7407 29.6982Z" fill="#CCCCCC" fill-opacity="0.5"/>
<path fill-rule="evenodd" clip-rule="evenodd" d="M119.497 29.6982C119.497 31.3322 118.18 32.6496 116.545 32.6496C114.921 32.6496 113.594 31.3322 113.594 29.6982C113.594 28.0642 114.911 26.7467 116.545 26.7467C118.18 26.7467 119.497 28.0744 119.497 29.6982Z" fill="#CCCCCC" fill-opacity="0.5"/>
<path fill-rule="evenodd" clip-rule="evenodd" d="M142.243 29.6982C142.243 31.3322 140.926 32.6496 139.292 32.6496C137.657 32.6496 136.34 31.3322 136.34 29.6982C136.34 28.0642 137.657 26.7467 139.292 26.7467C140.926 26.7467 142.243 28.0744 142.243 29.6982Z" fill="#CCCCCC" fill-opacity="0.5"/>
<path fill-rule="evenodd" clip-rule="evenodd" d="M165 29.6982C165 31.3322 163.682 32.6496 162.048 32.6496C160.424 32.6496 159.096 31.3322 159.096 29.6982C159.096 28.0642 160.414 26.7467 162.048 26.7467C163.682 26.7467 165 28.0744 165 29.6982Z" fill="#CCCCCC" fill-opacity="0.5"/>
<path fill-rule="evenodd" clip-rule="evenodd" d="M96.7407 56.7717C96.7407 58.4057 95.4231 59.7232 93.7889 59.7232C92.1547 59.7232 90.8371 58.4057 90.8371 56.7717C90.8473 55.1479 92.1649 53.8203 93.7991 53.8203C95.4231 53.8203 96.7407 55.1479 96.7407 56.7717Z" fill="#CCCCCC" fill-opacity="0.5"/>
<path fill-rule="evenodd" clip-rule="evenodd" d="M119.497 56.7717C119.497 58.4057 118.18 59.7232 116.545 59.7232C114.921 59.7232 113.594 58.4057 113.594 56.7717C113.594 55.1479 114.911 53.8203 116.545 53.8203C118.18 53.8203 119.497 55.1479 119.497 56.7717Z" fill="#CCCCCC" fill-opacity="0.5"/>
<path fill-rule="evenodd" clip-rule="evenodd" d="M142.243 56.7717C142.243 58.4057 140.926 59.7232 139.292 59.7232C137.657 59.7232 136.34 58.4057 136.34 56.7717C136.34 55.1479 137.657 53.8203 139.292 53.8203C140.926 53.8203 142.243 55.1479 142.243 56.7717Z" fill="#CCCCCC" fill-opacity="0.5"/>
<path fill-rule="evenodd" clip-rule="evenodd" d="M165 56.7717C165 58.4057 163.682 59.7232 162.048 59.7232C160.424 59.7232 159.096 58.4057 159.096 56.7717C159.096 55.1479 160.414 53.8203 162.048 53.8203C163.682 53.8203 165 55.1479 165 56.7717Z" fill="#CCCCCC" fill-opacity="0.5"/>
<path fill-rule="evenodd" clip-rule="evenodd" d="M96.7407 84.3661C96.7407 86.0001 95.4231 87.3175 93.7889 87.3175C92.1649 87.3175 90.8473 85.9899 90.8473 84.3661C90.8473 82.7321 92.1649 81.4147 93.7991 81.4147C95.4231 81.4147 96.7407 82.7321 96.7407 84.3661Z" fill="#CCCCCC" fill-opacity="0.5"/>
<path fill-rule="evenodd" clip-rule="evenodd" d="M119.497 84.3661C119.497 86.0001 118.18 87.3175 116.545 87.3175C114.921 87.3175 113.594 86.0001 113.594 84.3661C113.594 82.7321 114.911 81.4147 116.545 81.4147C118.18 81.4147 119.497 82.7321 119.497 84.3661Z" fill="#CCCCCC" fill-opacity="0.5"/>
<path fill-rule="evenodd" clip-rule="evenodd" d="M142.243 84.3661C142.243 86.0001 140.926 87.3175 139.292 87.3175C137.657 87.3175 136.34 86.0001 136.34 84.3661C136.34 82.7321 137.657 81.4147 139.292 81.4147C140.926 81.4147 142.243 82.7321 142.243 84.3661Z" fill="#CCCCCC" fill-opacity="0.5"/>
<path fill-rule="evenodd" clip-rule="evenodd" d="M165 84.3661C165 86.0001 163.682 87.3175 162.048 87.3175C160.424 87.3175 159.096 86.0001 159.096 84.3661C159.096 82.7321 160.414 81.4147 162.048 81.4147C163.682 81.4147 165 82.7321 165 84.3661Z" fill="#CCCCCC" fill-opacity="0.5"/>
</svg>
