<svg width="38" height="53" viewBox="0 0 38 53" fill="none" xmlns="http://www.w3.org/2000/svg">
<path d="M12.957 21.4492H18.5469C22.9766 21.4492 25.1914 19.2812 25.1914 14.9453C25.1914 13.2578 24.6641 11.8867 23.6094 10.832C22.5547 9.75391 21.0664 9.21484 19.1445 9.21484C17.5742 9.21484 16.2031 9.67188 15.0312 10.5859C13.8828 11.5 13.3086 12.6367 13.3086 13.9961H1.46094C1.46094 11.3008 2.21094 8.89844 3.71094 6.78906C5.21094 4.67969 7.28516 3.03906 9.93359 1.86719C12.6055 0.671875 15.5352 0.0742188 18.7227 0.0742188C24.418 0.0742188 28.8945 1.375 32.1523 3.97656C35.4102 6.57812 37.0391 10.1523 37.0391 14.6992C37.0391 16.9023 36.3594 18.9883 35 20.957C33.6641 22.9023 31.707 24.4844 29.1289 25.7031C31.8477 26.6875 33.9805 28.1875 35.5273 30.2031C37.0742 32.1953 37.8477 34.668 37.8477 37.6211C37.8477 42.1914 36.0898 45.8477 32.5742 48.5898C29.0586 51.332 24.4414 52.7031 18.7227 52.7031C15.3711 52.7031 12.2539 52.0703 9.37109 50.8047C6.51172 49.5156 4.34375 47.7461 2.86719 45.4961C1.39062 43.2227 0.652344 40.6445 0.652344 37.7617H12.5703C12.5703 39.332 13.2031 40.6914 14.4688 41.8398C15.7344 42.9883 17.293 43.5625 19.1445 43.5625C21.2305 43.5625 22.8945 42.9883 24.1367 41.8398C25.3789 40.668 26 39.1797 26 37.375C26 34.7969 25.3555 32.9688 24.0664 31.8906C22.7773 30.8125 20.9961 30.2734 18.7227 30.2734H12.957V21.4492Z" fill="#AD451F"/>
</svg>
