<svg width="37" height="52" viewBox="0 0 37 52" fill="none" xmlns="http://www.w3.org/2000/svg">
<path d="M36.8477 52H1.12891V44.2656L17.582 26.9688C21.6367 22.3516 23.6641 18.6836 23.6641 15.9648C23.6641 13.7617 23.1836 12.0859 22.2227 10.9375C21.2617 9.78906 19.8672 9.21484 18.0391 9.21484C16.2344 9.21484 14.7695 9.98828 13.6445 11.5352C12.5195 13.0586 11.957 14.9688 11.957 17.2656H0.0742188C0.0742188 14.125 0.859375 11.2305 2.42969 8.58203C4 5.91016 6.17969 3.82422 8.96875 2.32422C11.7578 0.824219 14.875 0.0742188 18.3203 0.0742188C23.8516 0.0742188 28.1055 1.35156 31.082 3.90625C34.082 6.46094 35.582 10.1289 35.582 14.9102C35.582 16.9258 35.207 18.8945 34.457 20.8164C33.707 22.7148 32.5352 24.7188 30.9414 26.8281C29.3711 28.9141 26.8281 31.7148 23.3125 35.2305L16.7031 42.8594H36.8477V52Z" fill="#AD451F"/>
</svg>
